<svg width="20" height="19" viewBox="0 0 20 19" fill="none" xmlns="http://www.w3.org/2000/svg">
<path fill-rule="evenodd" clip-rule="evenodd" d="M10 3.36442C9.67033 3.36442 9.38775 3.06985 9.38775 2.72618V0.835997C9.38775 0.492328 9.67033 0.197754 10 0.197754C10.3297 0.197754 10.6122 0.492328 10.6122 0.835997V2.72618C10.6122 3.06985 10.3297 3.36442 10 3.36442ZM6.40172 5.95192C7.31472 5.10192 8.60365 4.55192 10 4.55192C11.3963 4.55192 12.6853 5.07692 13.5983 5.95192C14.5113 6.80192 15.102 8.00192 15.102 9.30192C15.102 10.6019 14.5113 11.8019 13.5983 12.6519C12.6853 13.5019 11.3963 14.0519 10 14.0519C8.60365 14.0519 7.31472 13.5269 6.40172 12.6519C5.48872 11.8019 4.89796 10.6019 4.89796 9.30192C4.89796 8.00192 5.46187 6.80192 6.40172 5.95192ZM3.0593 3.70984L4.54178 5.14754C4.83827 5.40894 5.26954 5.40894 5.51213 5.14754C5.78167 4.88614 5.78167 4.4679 5.51213 4.2065L4.02965 2.7688C3.76011 2.5074 3.32884 2.5074 3.0593 2.7688C2.78976 3.0302 2.78976 3.44844 3.0593 3.70984ZM0.658124 8.90609H2.60718C2.96156 8.90609 3.26531 9.18013 3.26531 9.49984C3.26531 9.81955 2.96156 10.0936 2.60718 10.0936H0.658124C0.303749 10.0936 0 9.81955 0 9.49984C0 9.18013 0.303749 8.90609 0.658124 8.90609ZM5.51213 13.8521C5.24259 13.5907 4.81132 13.5907 4.54178 13.8521L3.0593 15.2898C2.78976 15.5512 2.78976 15.9695 3.0593 16.2309C3.32884 16.4923 3.76011 16.4923 4.02965 16.2309L5.51213 14.7932C5.78167 14.5318 5.78167 14.1135 5.51213 13.8521ZM10 15.6353C10.3297 15.6353 10.6122 15.9298 10.6122 16.2735V18.1637C10.6122 18.5073 10.3297 18.8019 10 18.8019C9.67033 18.8019 9.38775 18.5073 9.38775 18.1637V16.2735C9.38775 15.9298 9.67033 15.6353 10 15.6353ZM16.9407 15.2898L15.4582 13.8521C15.1617 13.5907 14.7305 13.5907 14.4879 13.8521C14.2183 14.1135 14.2183 14.5318 14.4879 14.7932L15.9704 16.2309C16.2399 16.4923 16.6712 16.4923 16.9407 16.2309C17.2102 15.9695 17.2102 15.5512 16.9407 15.2898ZM16.7347 9.49984C16.7347 9.18013 17.0384 8.90609 17.3928 8.90609H19.3419C19.6963 8.90609 20 9.18013 20 9.49984C20 9.81955 19.6963 10.0936 19.3419 10.0936H17.3928C17.0384 10.0936 16.7347 9.81955 16.7347 9.49984ZM14.4879 5.14754C14.7574 5.40894 15.1887 5.40894 15.4582 5.14754L16.9407 3.70984C17.2102 3.44844 17.2102 3.0302 16.9407 2.7688C16.6712 2.5074 16.2399 2.5074 15.9704 2.7688L14.4879 4.2065C14.2183 4.4679 14.2183 4.88614 14.4879 5.14754Z" fill="white"/>
</svg>
