<svg width="768" height="160" viewBox="0 0 768 160" fill="none" xmlns="http://www.w3.org/2000/svg">
<path d="M768 0H0V60C0 115.228 44.7715 160 100 160H768V0Z" fill="#5964E0"/>
<mask id="mask0" mask-type="alpha" maskUnits="userSpaceOnUse" x="0" y="0" width="768" height="160">
<path d="M768 0H0V60C0 115.228 44.7715 160 100 160H768V0Z" fill="white"/>
</mask>
<g mask="url(#mask0)">
<path opacity="0.0813802" fill-rule="evenodd" clip-rule="evenodd" d="M254.539 -323.258C251.422 -355.051 284.25 -378.038 313.059 -364.234L657.22 -199.336C685.511 -185.781 688.718 -146.77 663.02 -128.776L356.104 86.1291C330.406 104.123 294.845 87.7665 291.783 56.5452L254.539 -323.258Z" fill="white"/>
<path opacity="0.0813802" fill-rule="evenodd" clip-rule="evenodd" d="M-71.4609 71.7417C-74.5785 39.9492 -41.7496 16.9622 -12.9407 30.7655L331.22 195.664C359.511 209.219 362.718 248.23 337.02 266.224L30.1041 481.129C4.4064 499.123 -31.1552 482.767 -34.2168 451.545L-71.4609 71.7417Z" fill="white"/>
</g>
</svg>
